<?xml version="1.0" encoding="UTF-8" standalone="no"?><svg xmlns:svg="http://www.w3.org/2000/svg" xmlns="http://www.w3.org/2000/svg" xmlns:xlink="http://www.w3.org/1999/xlink" version="1.0" width="64px" height="64px" viewBox="0 0 128 128" xml:space="preserve"><rect x="0" y="0" width="100%" height="100%" fill="#FFFFFF" /><g><path d="M101.86 80.55a39.4 39.4 0 0 1-8.2 12.2L68.84 67.92a4.14 4.14 0 0 0 .86-1.2 4.37 4.37 0 0 0 .38-1.72h35.1a40.35 40.35 0 0 1-3.32 15.55zM66.7 58.3a4.38 4.38 0 0 0-1.7-.38v-35.1a40.36 40.36 0 0 1 15.55 3.32 39.4 39.4 0 0 1 12.2 8.2L67.92 59.16a4.14 4.14 0 0 0-1.2-.86zm-19.25 43.56a39.4 39.4 0 0 1-12.2-8.2l24.83-24.83a4.14 4.14 0 0 0 1.2.86 4.37 4.37 0 0 0 1.72.35v35.1a40.35 40.35 0 0 1-15.55-3.32zM58.3 61.3a4.38 4.38 0 0 0-.38 1.7h-35.1a40.36 40.36 0 0 1 3.32-15.55 39.4 39.4 0 0 1 8.2-12.2l24.83 24.83a4.14 4.14 0 0 0-.86 1.2z" fill="#fa5909" fill-opacity="1"/><animateTransform attributeName="transform" type="rotate" from="0 64 64" to="-90 64 64" dur="810ms" repeatCount="indefinite"></animateTransform></g><g><path d="M127.77 63.47l-20.7-.06a39.76 39.76 0 0 0-3.14-15.4 46.75 46.75 0 0 0-8.8-13.5l14.5-14.5s7.93 6.57 13.77 20.6a62.03 62.03 0 0 1 4.37 22.9zM87.64 123.4a62.05 62.05 0 0 1-22.9 4.37l.06-20.7a39.74 39.74 0 0 0 15.42-3.14 46.74 46.74 0 0 0 13.52-8.8l14.5 14.5s-6.57 7.93-20.6 13.77zM47.77 24.27a46.74 46.74 0 0 0-13.52 8.8l-14.5-14.5s6.56-7.93 20.6-13.77A62.04 62.04 0 0 1 63.25.44l-.06 20.7a39.75 39.75 0 0 0-15.46 3.13zm-23.5 55.96a46.74 46.74 0 0 0 8.8 13.52l-14.5 14.5s-7.93-6.57-13.76-20.6a62.04 62.04 0 0 1-4.33-22.9l20.7.06a39.75 39.75 0 0 0 3.14 15.46z" fill="#fa5909" fill-opacity="1"/><circle cx="64.08" cy="64.08" r="4.92" fill="#fa5909" fill-opacity="1"/><animateTransform attributeName="transform" type="rotate" from="0 64 64" to="90 64 64" dur="810ms" repeatCount="indefinite"></animateTransform></g></svg>